HIERARCHY
ROOT root
{
	OFFSET 0.000000 0.000000 0.000000
	CHANNELS 6 Xposition Yposition Zposition Zrotation Yrotation Xrotation
	JOINT lhip
	{
		OFFSET 0.058581 -0.082280 -0.017664
		CHANNELS 3 Zrotation Yrotation Xrotation
		JOINT lknee
		{
			OFFSET 0.043451 -0.386469 0.008037
			CHANNELS 3 Zrotation Yrotation Xrotation
			JOINT lankle
			{
				OFFSET -0.014790 -0.426874 -0.037428
				CHANNELS 3 Zrotation Yrotation Xrotation
				JOINT ltoe
				{
					OFFSET 0.041054 -0.060286 0.122042
					CHANNELS 3 Zrotation Yrotation Xrotation
					End Site
					{
						OFFSET 0.000000 0.000000 0.000000
					}
				}
			}
		}
	}
	JOINT rhip
	{
		OFFSET -0.060310 -0.090513 -0.013543
		CHANNELS 3 Zrotation Yrotation Xrotation
		JOINT rknee
		{
			OFFSET -0.043257 -0.383688 -0.004843
			CHANNELS 3 Zrotation Yrotation Xrotation
			JOINT rankle
			{
				OFFSET 0.019056 -0.420046 -0.034562
				CHANNELS 3 Zrotation Yrotation Xrotation
				JOINT rtoe
				{
					OFFSET -0.034840 -0.062106 0.130323
					CHANNELS 3 Zrotation Yrotation Xrotation
					End Site
					{
						OFFSET 0.000000 0.000000 0.000000
					}
				}
			}
		}
	}
	JOINT lowerback
	{
		OFFSET 0.004439 0.124404 -0.038385
		CHANNELS 3 Zrotation Yrotation Xrotation
		JOINT upperback
		{
			OFFSET 0.004488 0.137956 0.026820
			CHANNELS 3 Zrotation Yrotation Xrotation
			JOINT chest
			{
				OFFSET -0.002265 0.056032 0.002855
				CHANNELS 3 Zrotation Yrotation Xrotation
				JOINT lowerneck
				{
					OFFSET -0.013390 0.211636 -0.033468
					CHANNELS 3 Zrotation Yrotation Xrotation
					JOINT upperneck
					{
						OFFSET 0.010113 0.088937 0.050410
						CHANNELS 3 Zrotation Yrotation Xrotation
						End Site
						{
							OFFSET 0.000000 0.000000 0.000000
						}
					}
				}
				JOINT lclavicle
				{
					OFFSET 0.071702 0.114000 -0.018898
					CHANNELS 3 Zrotation Yrotation Xrotation
					JOINT lshoulder
					{
						OFFSET 0.122921 0.045205 -0.019046
						CHANNELS 3 Zrotation Yrotation Xrotation
						JOINT lelbow
						{
							OFFSET 0.255332 -0.015649 -0.022946
							CHANNELS 3 Zrotation Yrotation Xrotation
							JOINT lwrist
							{
								OFFSET 0.265709 0.012698 -0.007375
								CHANNELS 3 Zrotation Yrotation Xrotation
								End Site
								{
									OFFSET 0.000000 0.000000 0.000000
								}
							}
						}
					}
				}
				JOINT rclavicle
				{
					OFFSET -0.082954 0.112472 -0.023707
					CHANNELS 3 Zrotation Yrotation Xrotation
					JOINT rshoulder
					{
						OFFSET -0.113228 0.046853 -0.008472
						CHANNELS 3 Zrotation Yrotation Xrotation
						JOINT relbow
						{
							OFFSET -0.260127 -0.014369 -0.031269
							CHANNELS 3 Zrotation Yrotation Xrotation
							JOINT rwrist
							{
								OFFSET -0.269108 0.006794 -0.006027
								CHANNELS 3 Zrotation Yrotation Xrotation
								End Site
								{
									OFFSET 0.000000 0.000000 0.000000
								}
							}
						}
					}
				}
			}
		}
	}
}
MOTION
Frames: 5
Frame Time: 0.033333
-0.000187 0.003225 0.930423 165.082565 2.879921 79.534798 -1.364068 -5.945118 1.037803 -15.976999 -15.244142 48.268588 5.213913 9.369785 -28.146611 0.000000 -0.000000 0.000000 -1.329036 9.488533 -23.344357 2.230817 18.272975 12.187207 18.386470 2.790488 19.333119 0.000000 -0.000000 0.000000 -1.857030 -4.210859 23.963587 5.079992 -8.259797 3.529143 4.147778 -5.097054 -0.911231 -0.524790 15.159559 2.725239 4.609682 19.611718 3.922549 -20.342335 -12.923836 -1.245703 -29.750930 -23.163710 -1.693143 48.968692 -51.054132 -47.106409 2.717117 -7.534183 -18.806287 21.784104 -3.228673 1.926213 43.225842 -13.293105 1.109475 -32.768473 30.446479 -32.065252 16.139383 -0.540338 -16.058152 
-0.016943 -0.022253 0.928431 161.643294 2.667422 80.401319 -2.482826 -4.128467 0.988993 -11.008338 -12.805311 42.289304 6.599127 9.888869 -32.861873 0.000000 -0.000000 0.000000 -0.752019 7.314355 -25.096477 1.825012 14.161142 9.489244 19.401615 -1.910570 24.485094 0.000000 -0.000000 0.000000 -2.382059 -5.021752 25.083576 5.569022 -8.576314 1.355261 4.992712 -5.833801 -0.335867 -1.567314 13.977878 2.611892 3.920264 22.824979 4.354902 -20.163518 -11.519090 -0.665764 -31.058014 -24.664934 -2.756656 47.604339 -50.014221 -45.783205 4.819305 -6.805305 -19.018714 21.273878 -5.239282 1.444264 43.867116 -13.291128 2.360163 -34.539152 31.692675 -32.809099 15.498409 -0.554386 -13.240293 
-0.032191 -0.046580 0.929625 157.524901 2.027230 81.551938 -3.775013 -3.501396 -0.702986 -10.002153 -11.761971 39.180475 7.689006 12.403772 -34.180499 0.000000 -0.000000 0.000000 0.175220 6.914723 -27.832182 0.649366 10.758301 13.950602 15.259757 -5.675905 17.744318 0.000000 -0.000000 0.000000 -3.054068 -5.714489 24.980065 5.723823 -8.734005 -0.036752 5.387635 -6.142459 0.464284 -2.682596 14.137462 2.461639 3.020127 24.464429 4.161930 -20.486429 -11.114864 0.209311 -31.309896 -24.228605 -4.300311 47.975807 -49.325113 -46.322246 5.120819 -6.232206 -19.310242 21.376630 -5.632574 1.459038 44.149185 -13.366837 1.714273 -35.526997 33.762380 -32.325607 14.677225 -0.632490 -10.262581 
-0.047318 -0.070826 0.934965 153.101322 1.397290 81.648193 -5.218655 -5.473256 -3.022985 -10.172072 -9.261903 39.182417 7.291091 15.579505 -31.581562 0.000000 -0.000000 0.000000 0.724889 8.570517 -28.654039 -0.156744 8.393709 21.149187 9.015687 -10.705006 7.464951 0.000000 -0.000000 0.000000 -2.674221 -5.147630 22.138572 5.274419 -8.737699 2.896609 4.235231 -7.214999 3.366076 -2.948542 16.402296 -0.838265 1.948896 23.090036 4.110856 -19.954203 -13.110566 2.153519 -29.008763 -24.561140 -7.214117 49.645778 -46.803783 -47.437694 5.817896 -6.055955 -20.154206 23.253836 -4.545335 0.196644 45.034900 -11.203208 1.183021 -37.555979 34.401596 -30.533103 14.506971 0.452137 -11.672290 
-0.063186 -0.091824 0.944290 147.814115 0.895782 82.631886 -6.323060 -6.010165 -4.899726 -8.225210 -6.594736 36.723967 7.358473 17.433761 -29.469544 0.000000 -0.000000 0.000000 1.201605 9.091793 -30.359860 -0.435529 6.034952 29.512613 6.377401 -12.627215 1.617845 0.000000 -0.000000 0.000000 -2.982200 -6.556451 24.071773 5.544312 -8.489241 0.160374 4.741248 -6.305807 2.687787 -4.589028 16.890502 -0.017212 0.265927 25.219339 4.203510 -20.998879 -11.076402 1.860190 -31.323221 -22.372771 -7.084603 50.881651 -46.760183 -47.285507 3.679256 -6.431223 -19.100129 22.167245 -3.856120 1.919336 44.939622 -9.361603 1.918976 -37.574772 36.194999 -30.777343 13.279193 0.614090 -10.174720 
